HIERARCHY
ROOT Hips
{
	OFFSET -3.958830 18.904000 13.208200
	CHANNELS 6 Xposition Yposition Zposition Zrotation Yrotation Xrotation 
	JOINT LHipJoint
	{
		OFFSET 0.000000 0.000000 0.000000
		CHANNELS 3 Zrotation Yrotation Xrotation
		JOINT LeftUpLeg
		{
			OFFSET 1.800000 -1.400000 0.085000
			CHANNELS 3 Zrotation Yrotation Xrotation
			JOINT LeftLeg
			{
				OFFSET 2.215000 -6.000000 0.000000
				CHANNELS 3 Zrotation Yrotation Xrotation
				JOINT LeftFoot
				{
					OFFSET 2.500000 -6.900000 0.000000
					CHANNELS 3 Zrotation Yrotation Xrotation
					JOINT LeftToeBase
					{
						OFFSET 0.200000 -0.500000 1.950000
						CHANNELS 3 Zrotation Yrotation Xrotation
						End Site
						{
							OFFSET 0.000000 0.000000 0.000000
						}
					}
				}
			}
		}
	}
	JOINT RHipJoint
	{
		OFFSET 0.000000 0.000000 0.000000
		CHANNELS 3 Zrotation Yrotation Xrotation
		JOINT RightUpLeg
		{
			OFFSET -1.800000 -1.400000 0.085000
			CHANNELS 3 Zrotation Yrotation Xrotation
			JOINT RightLeg
			{
				OFFSET -2.215000 -6.000000 0.000000
				CHANNELS 3 Zrotation Yrotation Xrotation
				JOINT RightFoot
				{
					OFFSET -2.500000 -6.900000 0.000000
					CHANNELS 3 Zrotation Yrotation Xrotation
					JOINT RightToeBase
					{
						OFFSET -0.200000 -0.500000 1.950000
						CHANNELS 3 Zrotation Yrotation Xrotation
						End Site
						{
							OFFSET 0.000000 0.000000 0.000000
						}
					}
				}
			}
		}
	}
	JOINT LowerBack
	{
		OFFSET 0.000000 0.000000 0.000000
		CHANNELS 3 Zrotation Yrotation Xrotation
		JOINT Spine
		{
			OFFSET -0.087000 1.940000 -0.288900
			CHANNELS 3 Zrotation Yrotation Xrotation
			JOINT Spine1
			{
				OFFSET 0.000000 1.950000 0.060000
				CHANNELS 3 Zrotation Yrotation Xrotation
				JOINT Neck
				{
					OFFSET 0.000000 0.000000 0.000000
					CHANNELS 3 Zrotation Yrotation Xrotation
					JOINT Neck1
					{
						OFFSET 0.000000 1.600000 0.340000
						CHANNELS 3 Zrotation Yrotation Xrotation
						JOINT Head
						{
							OFFSET 0.000000 1.667000 -0.240000
							CHANNELS 3 Zrotation Yrotation Xrotation
							End Site
							{
								OFFSET 0.000000 0.000000 0.000000
							}
						}
					}
				}
				JOINT LeftShoulder
				{
					OFFSET 0.000000 0.000000 0.000000
					CHANNELS 3 Zrotation Yrotation Xrotation
					JOINT LeftArm
					{
						OFFSET 2.700000 1.550000 -0.730000
						CHANNELS 3 Zrotation Yrotation Xrotation
						JOINT LeftForeArm
						{
							OFFSET 5.450000 0.000000 0.000000
							CHANNELS 3 Zrotation Yrotation Xrotation
							JOINT LeftHand
							{
								OFFSET 3.450000 0.000000 0.000000
								CHANNELS 3 Zrotation Yrotation Xrotation
								JOINT LeftHandIndex1
								{
									OFFSET 0.750000 0.000000 0.000000
									CHANNELS 3 Zrotation Yrotation Xrotation
									End Site
									{
										OFFSET 0.000000 0.000000 0.000000
									}
								}
							}
						}
					}
				}
				JOINT RightShoulder
				{
					OFFSET 0.000000 0.000000 0.000000
					CHANNELS 3 Zrotation Yrotation Xrotation
					JOINT RightArm
					{
						OFFSET -2.700000 1.550000 -0.730000
						CHANNELS 3 Zrotation Yrotation Xrotation
						JOINT RightForeArm
						{
							OFFSET -5.450000 0.000000 0.000000
							CHANNELS 3 Zrotation Yrotation Xrotation
							JOINT RightHand
							{
								OFFSET -3.450000 0.000000 0.000000
								CHANNELS 3 Zrotation Yrotation Xrotation
								JOINT RightHandIndex1
								{
									OFFSET -0.750000 0.000000 0.000000
									CHANNELS 3 Zrotation Yrotation Xrotation
									End Site
									{
										OFFSET 0.000000 0.000000 0.000000
									}
								}
							}
						}
					}
				}
			}
		}
	}
}
MOTION
Frames: 11
Frame Time: 0.016667
-1.949090 17.704980 -4.974880 -145.873236 -38.926958 133.705304 -15.373874 11.542696 2.295954 27.023778 -0.550735 12.352465 -6.831261 7.117132 2.737359 0.476191 7.075319 2.410134 0.270030 -0.085190 0.072510 18.447204 -7.592388 5.830338 -32.369167 4.965215 -39.346850 72.631487 -65.802210 52.897097 -3.203309 -13.215268 0.216854 -0.180630 0.409680 0.461910 -4.383025 -1.760419 -9.781857 34.293341 -11.189217 28.589679 -6.886766 -6.294913 18.142105 2.704003 5.426011 -19.395859 8.673837 -16.940593 37.427091 9.640910 -18.771700 -13.838370 -1.709754 -32.424021 12.666370 -10.013001 3.084576 -12.289130 -70.101889 -86.281120 52.286310 -2.946392 4.197349 0.630780 -0.005970 0.136560 0.281330 -4.998084 29.695351 13.647077 24.564223 7.384201 -21.968862 -19.580242 61.093986 -15.678295 1.576819 -1.554497 -0.043540 0.192780 0.097380 0.083010 
-2.008490 17.714420 -4.915640 -149.936573 -28.471224 142.036350 -15.160218 11.241191 2.274468 26.693163 -0.643798 11.940961 -7.066724 6.950282 2.304893 0.580323 6.796176 2.498184 0.317190 0.030990 0.038240 18.642763 -7.944204 5.928231 -29.262834 6.642409 -43.881572 77.391273 -62.562193 47.516274 -3.243038 -13.228397 0.223368 -0.171310 0.366130 0.469090 -4.565126 -1.091336 -9.753572 36.391263 -11.184572 27.590161 -7.618711 -5.513713 18.097099 2.327880 6.202914 -20.076950 10.721221 -21.060432 37.559694 11.730160 -23.064480 -14.436350 -2.337977 -33.363953 13.167624 -9.854560 2.380954 -11.340194 -76.698689 -85.855020 57.519264 -3.019117 3.968716 0.551410 -0.045750 0.185480 0.335440 -3.869568 31.038296 13.224389 22.018340 11.309377 -21.897220 -19.787613 60.244889 -15.447880 1.650809 -1.657257 0.066440 0.142500 0.020380 0.175580 
-2.078550 17.743940 -4.929500 -153.539595 -17.574336 148.960148 -15.104967 11.401101 2.593758 25.681355 -0.591693 13.161762 -7.451813 6.648902 0.164244 0.592136 6.758119 2.490729 0.386970 0.075040 0.194840 18.637977 -8.065862 5.864304 -28.661802 6.344673 -44.557207 89.289476 -57.545932 36.497363 -3.150547 -12.418706 0.410600 -0.158880 0.205820 0.414480 -4.251063 -1.499941 -9.729014 34.581628 -10.199225 28.071502 -6.462493 -4.830514 16.898566 2.479772 6.705629 -21.255175 12.325394 -23.499301 41.322097 10.951180 -23.891690 -17.029240 -4.578799 -34.320427 13.449112 -11.916723 3.125455 -11.479839 -97.489473 -83.645884 74.511359 -3.573698 1.968781 0.670190 -0.165020 0.281990 0.290080 -2.304303 32.686212 13.458836 21.370334 13.224822 -22.273554 -19.786762 61.446553 -15.683993 1.680399 -1.579228 0.054990 0.149870 -0.043290 0.099150 
-2.186170 17.776780 -4.894790 -153.736834 -11.216251 152.114298 -15.016907 11.467350 2.606178 25.527801 -0.682422 12.910730 -6.691414 6.591595 0.350991 0.472508 6.675530 2.526659 0.316480 0.023220 0.177850 18.683173 -8.305908 5.749629 -28.812180 5.054328 -42.354364 90.767483 -55.240689 33.789568 -3.062855 -12.072550 0.507724 -0.153120 0.215620 0.306410 -4.343302 -1.406403 -9.578385 36.694486 -11.355333 26.806928 -7.577635 -5.883428 18.022257 3.004301 6.237083 -21.584158 10.957040 -25.656187 44.044734 11.059210 -26.111770 -20.231270 -4.568752 -35.463194 13.744872 -13.182667 2.093261 -12.158998 -100.276289 -82.148390 75.238065 -3.539312 1.867145 0.739010 -0.205160 0.280780 0.246210 -3.100208 34.074368 14.020171 23.016546 13.657192 -24.527952 -20.423073 66.260207 -18.686974 1.600391 -1.378395 -0.045730 0.303500 0.011670 0.073920 
-2.258150 17.786370 -4.889400 -153.906603 -6.048343 155.005018 -14.783123 11.046747 2.312992 24.945294 -0.788369 12.436394 -6.314005 6.560867 1.367810 0.372239 6.542732 2.695100 0.250890 0.003650 -0.004990 18.944133 -8.836319 5.738650 -29.094124 3.407620 -42.199720 90.671346 -54.548952 33.086975 -2.953971 -11.982351 0.615819 -0.090700 0.485720 0.214800 -4.988388 0.034555 -9.333145 38.277814 -11.892782 23.611447 -8.052688 -7.485611 22.738463 2.460549 5.674466 -20.318634 10.080700 -26.477893 40.953100 14.796330 -29.020190 -19.406980 0.130295 -35.670376 13.256003 -13.752215 -3.012886 -11.834219 -87.949770 -87.423011 66.235993 -3.527443 2.195066 0.642660 -0.093840 0.135740 0.373590 -5.202744 34.197186 14.280790 24.197748 16.391884 -26.958911 -24.344560 69.451060 -24.254314 1.508513 -1.274105 -0.164990 0.519280 0.040280 0.183070 
-2.282500 17.769120 -4.934420 -155.341284 -1.591466 158.317668 -14.759666 11.181127 2.155213 23.510211 -0.804971 11.152052 -5.819244 6.464103 2.920969 0.232047 6.281105 2.761313 0.325980 0.051540 0.040270 18.962518 -8.961124 5.735612 -29.049918 1.484665 -42.164933 91.749263 -53.816027 31.658744 -2.910838 -11.852730 0.617154 -0.033810 0.459370 0.205380 -5.048276 -0.013219 -9.173749 34.363873 -11.345507 22.184289 -5.679658 -8.897291 24.525313 1.861357 5.629646 -20.522840 9.889880 -25.355167 41.802171 14.490440 -28.295130 -18.130970 2.983100 -37.887726 12.761928 -14.814944 -4.510202 -15.516154 -61.268910 -85.726185 42.643943 -2.479886 4.184821 0.644410 -0.108590 0.104160 0.379720 -6.137660 35.786864 14.785118 24.788479 18.129838 -27.730838 -25.681427 70.330621 -26.285238 1.479462 -1.296336 -0.171310 0.484960 0.015530 0.157010 
-2.315080 17.760340 -4.967220 -155.472866 7.102845 161.721100 -14.845063 11.343535 2.283611 23.665435 -0.903001 11.583545 -6.242872 6.603918 2.751715 0.287743 6.373102 2.737565 0.314280 0.063030 0.047740 18.859106 -8.716453 5.893538 -27.583928 1.222381 -44.902287 97.235677 -51.444920 27.561022 -2.946440 -11.741165 0.675942 -0.038060 0.447960 0.178380 -4.852616 -0.519291 -9.253247 33.100766 -11.735205 24.614540 -4.520657 -8.780897 22.595231 1.320464 5.565358 -20.669983 9.294781 -24.868346 43.879233 14.748600 -27.832510 -18.612780 2.057968 -39.374259 12.312621 -13.414942 -5.382646 -16.787938 -43.927481 -83.692095 27.412173 -2.396887 4.030203 0.657160 -0.127170 0.134680 0.379880 -4.440106 36.706904 14.307378 24.448549 19.030207 -27.649217 -23.518906 73.210454 -26.176493 1.506976 -1.205266 -0.178040 0.518400 0.001630 0.162170 
-2.391390 17.768280 -4.979020 -154.987673 18.479932 166.408744 -14.941329 11.447871 2.242848 22.652291 -0.606298 11.861587 -5.672344 6.513103 2.941469 0.222792 6.296129 2.755857 0.309370 0.009400 0.103010 18.776332 -8.399316 6.309290 -28.576716 0.881081 -46.096232 105.823242 -43.358695 19.709588 -2.915954 -11.284405 0.793909 -0.062730 0.403990 0.152520 -4.858892 -0.796303 -9.355197 33.557035 -11.791890 26.578937 -5.220906 -7.375304 20.319943 1.350465 5.025782 -20.820668 7.585644 -23.386241 47.721790 15.646540 -27.031570 -19.954060 -0.255466 -40.114136 11.961724 -11.359951 -6.329062 -16.083340 -35.584310 -80.269135 20.419760 -2.412835 3.839370 0.755230 -0.182330 0.158600 0.344200 -2.586168 37.503033 13.691781 23.609328 21.024204 -26.442087 -13.078320 74.220745 -19.606718 1.470190 -1.327520 -0.225430 0.533420 0.013470 0.105840 
-2.486810 17.770730 -5.038460 -153.176266 26.573005 171.313919 -14.997383 11.429781 2.115526 22.155587 -0.580218 11.097373 -5.376673 6.501337 3.734298 0.146729 6.232790 2.770516 0.231970 -0.114550 0.076410 18.747804 -8.207300 6.620868 -30.393144 -0.464526 -45.196759 109.133833 -37.081562 15.204848 -2.786182 -10.784024 0.917083 -0.123780 0.423560 0.165180 -5.026821 -0.886048 -9.400624 34.933373 -12.854346 26.051850 -6.048162 -7.704085 19.678875 1.239338 4.176790 -21.106653 5.436427 -21.962633 49.352973 13.982760 -26.871970 -18.477050 -1.635557 -40.873478 12.458351 -11.452169 -5.772439 -16.074743 -30.183765 -79.914692 15.909935 -2.462479 3.778111 0.775250 -0.164200 0.125360 0.297770 -1.246050 38.335950 13.434575 24.048656 22.903125 -26.050379 -17.828232 73.334521 -21.487779 1.492522 -1.121711 -0.256980 0.527300 0.087800 0.076100 
-2.557190 17.780780 -5.080050 -151.023062 32.283558 175.641674 -15.089206 11.484474 2.037248 21.940711 -0.767734 9.996354 -4.610702 6.271451 4.206292 -0.001474 6.114473 2.758200 0.338850 -0.060830 0.199330 18.676241 -8.052229 6.765706 -31.804348 -2.349201 -43.658986 108.820279 -33.540778 13.251610 -2.732309 -10.403794 0.929740 -0.071220 0.338700 0.218140 -4.913912 -1.216296 -9.447198 34.106655 -13.118278 26.454217 -4.785469 -8.315830 20.097206 1.374267 4.837870 -21.449333 6.769710 -22.868644 47.726830 13.192030 -26.003020 -21.093740 -0.228500 -42.081045 11.938674 -11.261145 -8.104451 -16.845712 -26.699467 -77.747563 12.421818 -2.344222 3.858167 0.858790 -0.216730 0.170940 0.272640 -2.968386 38.983013 13.846898 25.562261 23.040074 -27.483594 -25.337632 73.356676 -26.667695 1.470595 -0.980436 -0.250440 0.478600 0.072930 0.013590 
-2.601570 17.777800 -5.120140 -148.089608 38.973060 -178.757871 -15.133763 11.417916 1.887159 21.652725 -0.889189 8.774991 -4.089581 6.093224 4.788230 -0.038888 5.954552 2.820294 0.375530 0.019150 0.146560 18.669505 -7.992666 6.895242 -31.791328 -2.901187 -44.753603 106.905651 -31.330418 12.822639 -2.667284 -10.299455 0.951034 -0.009250 0.404960 0.247880 -4.952358 -1.180359 -9.469832 33.378821 -13.450453 26.657524 -3.753195 -8.930670 21.135459 1.318626 4.759612 -20.833724 7.109690 -22.037795 43.470944 12.947210 -25.099880 -20.566040 1.041943 -42.236265 11.150616 -10.740554 -7.777141 -18.212549 -12.006280 -76.197389 1.334453 -2.407578 3.791270 0.767980 -0.157490 0.128550 0.321830 -3.799105 39.395256 13.053101 22.678477 25.104457 -27.744258 -19.482335 70.929149 -21.996448 1.388216 -1.248723 -0.220290 0.474920 0.066140 0.065000 
